#!OML:ASF F:\VICON\USERDATA\INSTALL\rory3\rory3.ASF
:FULLY-SPECIFIED
:DEGREES
169
root 1.01723 20.6761 -16.5736 5.68554 0.766008 -0.723779
lowerback 8.32625 -0.178239 -0.33058
upperback -0.42213 -0.141581 2.4909
thorax -5.10847 -0.0270284 2.8005
lowerneck -18.1025 -4.38953 -9.67886
upperneck 13.4558 -4.73434 7.24825
head 7.51485 -2.09504 3.41179
rclavicle 1.39149e-015 -1.98785e-014
rhumerus -33.6998 -2.8981 -75.3346
rradius 35.5896
rwrist 7.46994
rhand -17.1988 14.6975
rfingers 7.12502
rthumb 9.04356 -15.0887
lclavicle 1.39149e-015 -1.98785e-014
lhumerus -28.5223 -0.0324014 78.1912
lradius 35.3216
lwrist -2.42822
lhand -12.3667 27.6571
lfingers 7.12502
lthumb 13.7036 57.186
rfemur -13.0447 0.944352 19.8286
rtibia 22.5471
rfoot 15.0902 -6.15473
rtoes 3.21773
lfemur -15.0361 -1.99224 -17.804
ltibia 23.3256
lfoot 16.9236 -1.27494
ltoes -2.37747
170
root 1.01645 20.4681 -16.5823 5.68952 0.634798 -0.639476
lowerback 8.42839 -0.154836 -0.518334
upperback -0.476149 -0.127021 2.49501
thorax -5.22321 -0.0131911 2.91104
lowerneck -18.3231 -4.3028 -9.73655
upperneck 13.6824 -4.60349 7.32387
head 7.61861 -2.02538 3.46329
rclavicle 6.4605e-015 3.65764e-014
rhumerus -33.7606 -2.0408 -75.66
rradius 35.3108
rwrist 4.79417
rhand -17.2381 15.4788
rfingers 7.12502
rthumb 9.00559 -14.309
lclavicle 6.4605e-015 3.65764e-014
lhumerus -28.322 -0.153618 78.1346
lradius 35.4511
lwrist -2.28008
lhand -12.3526 28.6829
lfingers 7.12502
lthumb 13.7172 58.2107
rfemur -13.1148 0.849253 19.7783
rtibia 22.4656
rfoot 15.1969 -5.82487
rtoes 1.84271
lfemur -14.9556 -1.99986 -17.9346
ltibia 23.2708
lfoot 17.0539 -1.26502
ltoes -3.03184
171
root 1.01519 20.2433 -16.5911 5.6581 0.679977 -0.725115
lowerback 8.49649 -0.230023 -0.459158
upperback -0.535905 -0.218255 2.51904
thorax -5.31953 -0.058144 2.9161
lowerneck -18.1722 -4.29035 -9.79799
upperneck 13.6929 -4.5998 7.40108
head 7.59954 -2.02274 3.50115
rclavicle -6.26172e-015 1.82882e-014
rhumerus -33.8523 -1.47598 -75.7943
rradius 35.5643
rwrist 4.66742
rhand -16.2852 14.4096
rfingers 7.12502
rthumb 9.925 -15.3365
lclavicle -6.26172e-015 1.82882e-014
lhumerus -28.3801 -0.383226 78.0329
lradius 35.6939
lwrist -1.68234
lhand -13.1573 28.6222
lfingers 7.12502
lthumb 12.9415 58.2009
rfemur -13.1419 0.649418 19.9475
rtibia 22.4056
rfoot 15.3605 -5.55172
rtoes 0.292904
lfemur -14.9203 -2.04688 -17.855
ltibia 23.3185
lfoot 17.115 -1.30365
ltoes -3.57126
172
root 1.01367 20.0056 -16.5993 5.63491 0.818205 -0.929104
lowerback 8.39717 -0.295967 -0.281681
upperback -0.506552 -0.288688 2.53892
thorax -5.22951 -0.0986912 2.84379
lowerneck -18.0812 -4.29758 -9.63818
upperneck 13.6116 -4.65238 7.37722
head 7.55748 -2.04294 3.46046
rclavicle 9.93923e-016 1.27222e-014
rhumerus -33.8735 -1.5903 -75.6851
rradius 36.3134
rwrist 6.86099
rhand -14.5723 12.1703
rfingers 7.12502
rthumb 11.5772 -17.4899
lclavicle 9.93923e-016 1.27222e-014
lhumerus -28.3574 -0.699693 77.8979
lradius 35.9496
lwrist -0.918824
lhand -14.2367 26.7473
lfingers 7.12502
lthumb 11.9009 56.389
rfemur -13.1813 0.346097 20.2719
rtibia 22.4073
rfoot 15.6493 -5.10008
rtoes -0.706204
lfemur -14.9442 -2.225 -17.6086
ltibia 23.4
lfoot 17.0045 -1.12332
ltoes -3.81014
173
root 1.00896 19.7638 -16.6119 5.67456 0.927239 -1.07359
lowerback 8.13775 -0.283774 -0.188387
upperback -0.386874 -0.270225 2.50912
thorax -4.95909 -0.0956877 2.75232
lowerneck -18.0011 -4.2898 -9.55605
upperneck 13.3281 -4.69726 7.59818
head 7.45849 -2.04 3.51422
rclavicle 5.36719e-015 -3.97569e-015
rhumerus -33.689 -1.22357 -76.1129
rradius 35.6861
rwrist 3.24935
rhand -16.7397 15.6757
rfingers 7.12502
rthumb 9.48655 -14.0908
lclavicle 5.36719e-015 -3.97569e-015
lhumerus -28.0414 -0.950371 77.6782
lradius 36.2705
lwrist -0.792086
lhand -14.0524 25.7731
lfingers 7.12502
lthumb 12.0786 55.4045
rfemur -13.3415 0.0193226 20.5591
rtibia 22.4895
rfoot 16.1642 -4.64677
rtoes -0.59071
lfemur -14.9733 -2.42518 -17.4065
ltibia 23.4928
lfoot 16.3015 -0.986516
ltoes -6.32774
174
root 1.00479 19.511 -16.6274 5.7394 0.890509 -1.1014
lowerback 7.96794 -0.212383 -0.215955
upperback -0.278336 -0.185134 2.44413
thorax -4.75405 -0.0561558 2.6862
lowerneck -18.0267 -4.33553 -9.5082
upperneck 12.9921 -4.79251 7.82071
head 7.36621 -2.06106 3.56641
rclavicle 1.59028e-015 -5.96354e-015
rhumerus -33.3468 -1.50151 -76.0945
rradius 35.8123
rwrist 3.85487
rhand -17.385 15.4824
rfingers 7.12502
rthumb 8.86382 -14.3114
lclavicle 1.59028e-015 -5.96354e-015
lhumerus -27.6571 -1.15795 77.4838
lradius 36.5381
lwrist -0.745677
lhand -13.9587 24.681
lfingers 7.12502
lthumb 12.169 54.307
rfemur -13.6416 -0.254944 20.7192
rtibia 22.7458
rfoot 16.6279 -3.98147
rtoes -1.36716
lfemur -15.0312 -2.61816 -17.3208
ltibia 23.6261
lfoot 16.8516 -0.352159
ltoes -5.06843
